HIERARCHY
ROOT Pelvis
{
	OFFSET 0.000000 0.000000 0.000000
	CHANNELS 6 Xposition Yposition Zposition Xrotation Yrotation Zrotation
	JOINT LeftUpLeg_virtual
	{
		OFFSET 0.000000 0.000000 0.000000
		CHANNELS 3 Xrotation Yrotation Zrotation
		JOINT LeftUpLeg
		{
			OFFSET 8.479700 -4.795502 -0.379100
			CHANNELS 3 Xrotation Yrotation Zrotation
			JOINT LeftLeg
			{
				OFFSET 0.024144 -32.555107 0.112900
				CHANNELS 3 Xrotation Yrotation Zrotation
				JOINT LeftFoot
				{
					OFFSET -0.024144 -32.638630 -3.012600
					CHANNELS 3 Xrotation Yrotation Zrotation
					JOINT LeftToeBase
					{
						OFFSET 0.970200 -13.225400 11.864200
						CHANNELS 3 Xrotation Yrotation Zrotation
						End Site
						{
							OFFSET 0 0 0
						}
					}
				}
			}
		}
	}
	JOINT RightUpLeg_virtual
	{
		OFFSET 0.000000 0.000000 0.000000
		CHANNELS 3 Xrotation Yrotation Zrotation
		JOINT RightUpLeg
		{
			OFFSET -8.479700 -4.795502 -0.379100
			CHANNELS 3 Xrotation Yrotation Zrotation
			JOINT RightLeg
			{
				OFFSET -0.023144 -32.555092 0.112900
				CHANNELS 3 Xrotation Yrotation Zrotation
				JOINT RightFoot
				{
					OFFSET 0.023144 -32.638641 -3.012700
					CHANNELS 3 Xrotation Yrotation Zrotation
					JOINT RightToeBase
					{
						OFFSET -0.970200 -13.225400 11.864200
						CHANNELS 3 Xrotation Yrotation Zrotation
						End Site
						{
							OFFSET 0 0 0
						}
					}
				}
			}
		}
	}
	JOINT Hips_virtual
	{
		OFFSET 0.000000 0.000000 0.000000
		CHANNELS 3 Xrotation Yrotation Zrotation
		JOINT Hips
		{
			OFFSET -0.000000 -0.000000 -0.000000
			CHANNELS 3 Xrotation Yrotation Zrotation
			JOINT Spine
			{
				OFFSET 0.000000 7.722000 1.166200
				CHANNELS 3 Xrotation Yrotation Zrotation
				JOINT Spine1
				{
					OFFSET 0.000000 12.024101 0.248800
					CHANNELS 3 Xrotation Yrotation Zrotation
					JOINT Spine2
					{
						OFFSET 0.000000 11.502998 -0.491200
						CHANNELS 3 Xrotation Yrotation Zrotation
						JOINT Neck_virtual
						{
							OFFSET 0.000000 0.000000 0.000000
							CHANNELS 3 Xrotation Yrotation Zrotation
							JOINT Neck
							{
								OFFSET 0.000000 18.430702 -3.123100
								CHANNELS 3 Xrotation Yrotation Zrotation
								JOINT Head
								{
									OFFSET 0.000000 9.051102 1.034000
									CHANNELS 3 Xrotation Yrotation Zrotation
									End Site
									{
										OFFSET 0 0 0
									}
								}
							}
						}
						JOINT LeftShoulder_virtual
						{
							OFFSET 0.000000 0.000000 0.000000
							CHANNELS 3 Xrotation Yrotation Zrotation
							JOINT LeftShoulder
							{
								OFFSET 6.197800 13.665199 -4.064700
								CHANNELS 3 Xrotation Yrotation Zrotation
								JOINT LeftArm
								{
									OFFSET 7.778100 -0.187103 -1.709300
									CHANNELS 3 Xrotation Yrotation Zrotation
									JOINT LeftForeArm
									{
										OFFSET 22.049376 0.000000 0.000000
										CHANNELS 3 Xrotation Yrotation Zrotation
										JOINT LeftHand
										{
											OFFSET 23.009392 0.000000 0.000000
											CHANNELS 3 Xrotation Yrotation Zrotation
											End Site
											{
												OFFSET 0 0 0
											}
										}
									}
								}
							}
						}
						JOINT RightShoulder_virtual
						{
							OFFSET 0.000000 0.000000 0.000000
							CHANNELS 3 Xrotation Yrotation Zrotation
							JOINT RightShoulder
							{
								OFFSET -6.197800 13.665199 -4.064700
								CHANNELS 3 Xrotation Yrotation Zrotation
								JOINT RightArm
								{
									OFFSET -7.778100 -0.187103 -1.709300
									CHANNELS 3 Xrotation Yrotation Zrotation
									JOINT RightForeArm
									{
										OFFSET -22.049376 0.000000 0.000000
										CHANNELS 3 Xrotation Yrotation Zrotation
										JOINT RightHand
										{
											OFFSET -23.009392 0.000000 0.000000
											CHANNELS 3 Xrotation Yrotation Zrotation
											End Site
											{
												OFFSET 0 0 0
											}
										}
									}
								}
							}
						}
					}
				}
			}
		}
	}
}
MOTION
Frames: 9
Frame Time: 0.03333333
-0.679271 79.880989 0.246447 0.000000 0.000000 0.000000 -5.343576 -7.739135 6.008507 -28.152185 6.738356 10.863963 21.260979 8.583872 0.703877 31.381652 9.202537 1.319845 0.000000 0.000000 0.000000 -5.343576 -7.739135 6.008507 -10.388088 -8.931760 14.252294 19.336284 -9.948667 -1.111392 -7.716557 -14.299040 -22.020716 0.000000 0.000000 0.000000 -5.343576 -7.739135 6.008507 0.000000 -0.000001 0.000000 0.572177 1.002409 -3.211179 0.947293 2.037202 -4.377106 0.000000 0.000000 0.000000 0.968933 2.043658 -4.365421 2.884317 1.135687 4.005908 0.000000 0.000000 0.000000 0.968933 2.043658 -4.365421 1.058070 -0.340529 -4.891288 -16.372112 12.814412 -32.934018 0.000019 -24.507079 0.000037 0.000000 0.000000 0.000000 0.968933 2.043658 -4.365421 0.199127 -5.464831 5.846318 -40.201226 28.677458 7.199776 -0.000002 4.457078 -0.000001 0.000000 0.000000 0.000000 
-0.738899 80.008575 0.973801 0.000000 0.000000 0.000000 -5.494865 -10.633589 6.570096 -29.551223 6.845344 9.242078 21.987400 8.654355 0.701101 31.571440 7.911450 -1.202468 0.000000 0.000000 0.000000 -5.494865 -10.633589 6.570096 -9.729112 -8.722363 13.475918 20.920825 -9.876294 -1.035984 -8.618597 -12.815344 -20.581614 0.000000 0.000000 0.000000 -5.494865 -10.633589 6.570096 0.000000 0.000000 0.000000 0.702030 1.182125 -3.514108 1.150021 2.492869 -4.561967 0.000000 0.000000 0.000000 1.175537 2.502168 -4.546986 2.728370 1.302015 3.879431 0.000000 0.000000 0.000000 1.175537 2.502168 -4.546986 0.919752 0.306314 -3.868010 -17.993280 11.628147 -29.784136 0.000005 -26.012419 0.000003 0.000000 0.000000 0.000000 1.175537 2.502168 -4.546986 0.206929 -5.347462 5.805464 -41.452398 31.404100 7.845448 -0.000003 4.254782 -0.000001 0.000000 0.000000 0.000000 
-0.800141 80.136490 1.707819 0.000000 0.000000 0.000000 -5.650079 -13.527928 7.069001 -30.827499 7.077506 7.509294 22.725701 8.749536 0.707775 31.868512 6.878705 -3.699224 0.000000 0.000000 0.000000 -5.650079 -13.527928 7.069001 -9.114699 -8.534389 12.638295 22.617683 -9.804090 -0.955598 -9.548190 -11.391519 -19.044796 0.000000 0.000000 0.000000 -5.650079 -13.527928 7.069001 -0.000000 0.000001 0.000001 0.831666 1.366489 -3.796635 1.350767 2.961713 -4.730877 0.000000 0.000000 0.000000 1.379869 2.974012 -4.712207 2.584064 1.463159 3.751657 0.000000 0.000000 0.000000 1.379869 2.974012 -4.712207 0.757069 0.956895 -2.838909 -19.446291 10.332247 -26.706624 0.000010 -27.039618 0.000006 0.000000 0.000000 0.000000 1.379869 2.974012 -4.712207 0.212557 -5.230999 5.754126 -42.739516 34.146513 8.566003 0.000001 4.063308 0.000000 0.000000 0.000000 0.000000 
-0.873816 80.260170 2.441954 0.000000 0.000000 0.000000 -5.820768 -16.367059 7.474976 -32.021464 7.426841 5.684689 23.446841 8.865073 0.727154 32.370049 6.211767 -6.132714 0.000000 0.000000 0.000000 -5.820768 -16.367059 7.474976 -8.502963 -8.377474 11.787480 24.329692 -9.729082 -0.875858 -10.447597 -10.064420 -17.459809 0.000000 0.000000 0.000000 -5.820768 -16.367059 7.474976 0.000001 -0.000001 -0.000001 0.961998 1.563572 -4.044840 1.552685 3.454295 -4.875777 0.000000 0.000000 0.000000 1.585066 3.469682 -4.853022 2.463896 1.609704 3.624302 0.000000 0.000000 0.000000 1.585066 3.469682 -4.853022 0.574223 1.603291 -1.815878 -20.697789 9.000521 -23.723484 -0.000012 -27.489795 -0.000006 0.000000 0.000000 0.000000 1.585066 3.469682 -4.853022 0.215349 -5.122703 5.672776 -43.983976 36.850138 9.221126 0.000005 3.892994 0.000005 0.000000 0.000000 0.000000 
-1.007595 80.377914 3.146397 0.000000 0.000000 0.000000 -6.032517 -19.051751 7.663359 -33.254046 7.954064 3.777000 24.038825 9.012114 0.771165 33.394605 6.276175 -8.497916 0.000000 0.000000 0.000000 -6.032517 -19.051751 7.663359 -7.756326 -8.362574 11.098637 25.792512 -9.646588 -0.803269 -11.072057 -8.944541 -15.970770 0.000000 0.000000 0.000000 -6.032517 -19.051751 7.663359 0.000000 0.000001 0.000000 1.106413 1.804714 -4.243345 1.780583 4.029427 -4.976537 0.000000 0.000000 0.000000 1.816225 4.047997 -4.948806 2.395713 1.711542 3.497552 0.000000 0.000000 0.000000 1.816225 4.047997 -4.948806 0.374557 2.240368 -0.806799 -21.745714 7.692716 -20.829157 -0.000008 -27.338006 -0.000008 0.000000 0.000000 0.000000 1.816225 4.047997 -4.948806 0.214940 -5.027858 5.548212 -45.098178 39.487735 9.681365 0.000005 3.811689 0.000002 0.000000 0.000000 0.000000 
-1.280619 80.506897 3.773806 0.000000 0.000000 0.000000 -6.309106 -21.464477 7.444649 -34.647057 8.823309 1.715043 24.503763 9.209007 0.864495 35.287141 7.795017 -10.725130 0.000000 0.000000 0.000000 -6.309106 -21.464477 7.444649 -6.653317 -8.717580 10.835529 26.586136 -9.552259 -0.746403 -10.933960 -8.173215 -14.760792 0.000000 0.000000 0.000000 -6.309106 -21.464477 7.444649 0.000001 0.000002 -0.000000 1.285407 2.134850 -4.392414 2.069222 4.782975 -4.995582 0.000000 0.000000 0.000000 2.108387 4.805057 -4.960763 2.414554 1.724741 3.360783 0.000000 0.000000 0.000000 2.108387 4.805057 -4.960763 0.158926 2.867089 0.188197 -22.609933 6.437971 -17.983272 0.000002 -26.652751 0.000003 0.000000 0.000000 0.000000 2.108387 4.805057 -4.960763 0.211108 -4.950960 5.370194 -45.996345 42.033903 9.824701 -0.000008 3.849761 -0.000007 0.000000 0.000000 0.000000 
-1.554999 80.625977 4.401419 0.000000 0.000000 0.000000 -6.554357 -23.733002 7.134196 -35.773362 9.859440 -0.480456 25.312432 9.285354 0.991319 36.954349 10.132115 -12.707310 0.000000 0.000000 0.000000 -6.554357 -23.733002 7.134196 -5.606066 -9.114215 10.595929 27.328500 -9.458338 -0.691307 -10.623026 -7.440554 -13.621848 0.000000 0.000000 0.000000 -6.554357 -23.733002 7.134196 0.000000 0.000001 0.000000 1.427796 2.461505 -4.471429 2.289845 5.521895 -4.928586 0.000000 0.000000 0.000000 2.330438 5.547313 -4.886229 2.482272 1.738874 3.187907 0.000000 0.000000 0.000000 2.330438 5.547313 -4.886229 -0.055453 3.475716 1.151965 -23.299809 5.427550 -15.271065 0.000003 -25.057488 -0.000001 0.000000 0.000000 0.000000 2.330438 5.547313 -4.886229 0.202356 -4.899197 5.112888 -46.554870 44.438683 9.552663 -0.000016 4.022038 0.000001 0.000000 0.000000 0.000000 
-1.783959 80.674118 5.007751 0.000000 0.000000 0.000000 -6.704161 -25.815958 6.755916 -36.142369 11.312001 -2.975687 26.343210 9.355113 1.160497 38.826128 13.324895 -14.423640 0.000000 0.000000 0.000000 -6.704161 -25.815958 6.755916 -4.809548 -9.609893 10.318409 28.167575 -9.312302 -0.637542 -10.224305 -6.907855 -12.610748 0.000000 0.000000 0.000000 -6.704161 -25.815958 6.755916 0.000000 0.000001 0.000000 1.497899 2.759590 -4.365287 2.379553 6.183441 -4.730121 0.000000 0.000000 0.000000 2.417282 6.211769 -4.680659 2.666097 1.768593 2.988431 0.000000 0.000000 0.000000 2.417282 6.211769 -4.680659 -0.205715 4.101408 2.087587 -24.104656 5.501763 -13.014841 -0.000006 -20.059593 0.000001 0.000000 0.000000 0.000000 2.417282 6.211769 -4.680659 0.181780 -4.894398 4.672941 -46.581118 46.657521 8.907753 0.000004 4.311208 -0.000001 0.000000 0.000000 0.000000 
-2.085365 80.659271 5.648271 0.000000 0.000000 0.000000 -6.779138 -27.654318 6.341591 -36.014324 12.684036 -5.584417 27.273085 9.303927 1.331293 40.638079 16.816978 -15.652876 0.000000 0.000000 0.000000 -6.779138 -27.654318 6.341591 -4.035403 -10.095699 10.167398 28.887633 -8.538198 -0.583087 -9.853659 -6.992392 -11.898091 0.000000 0.000000 0.000000 -6.779138 -27.654318 6.341591 0.000000 0.000002 0.000000 1.495093 3.021778 -4.157745 2.346481 6.742623 -4.450814 0.000000 0.000000 0.000000 2.378277 6.772460 -4.396691 2.934394 1.811401 2.740240 0.000000 0.000000 0.000000 2.378277 6.772460 -4.396691 -0.322191 4.618095 2.850652 -24.664809 6.113083 -10.966438 0.000001 -16.100165 -0.000001 0.000000 0.000000 0.000000 2.378277 6.772460 -4.396691 0.161807 -4.855037 4.209507 -46.379402 48.797088 7.972099 0.000007 4.644547 -0.000004 0.000000 0.000000 0.000000 
